REM DIRINDEX 1\4,1\2\5,1\2\6,1\3\7,1\3\8
REM DIRNAME folder01,folder02,folder03,folder04,folder05,folder06,folder07,folder08
TITLE ""
FILE "012_Day06_Check3_Sentences.mp3" MP3
  TRACK 01 AUDIO
    TITLE "0:"
    INDEX 01 00:00:00
  TRACK 02 AUDIO
    TITLE "4:cjc124_0364"
    INDEX 01 00:00:25
  TRACK 03 AUDIO
    TITLE "0:"
    INDEX 01 00:01:54
  TRACK 04 AUDIO
    TITLE "7:cjc124_0365"
    INDEX 01 00:02:20
  TRACK 05 AUDIO
    TITLE "0:"
    INDEX 01 00:05:12
  TRACK 06 AUDIO
    TITLE "8:cjc124_0366"
    INDEX 01 00:05:28
  TRACK 07 AUDIO
    TITLE "0:"
    INDEX 01 00:08:26
  TRACK 08 AUDIO
    TITLE "7:cjc124_0367"
    INDEX 01 00:08:64
  TRACK 09 AUDIO
    TITLE "0:"
    INDEX 01 00:12:03
  TRACK 10 AUDIO
    TITLE "8:cjc124_0368"
    INDEX 01 00:12:20
  TRACK 11 AUDIO
    TITLE "0:"
    INDEX 01 00:14:51
  TRACK 12 AUDIO
    TITLE "7:cjc124_0369"
    INDEX 01 00:15:13
  TRACK 13 AUDIO
    TITLE "0:"
    INDEX 01 00:18:74
  TRACK 14 AUDIO
    TITLE "8:cjc124_0370"
    INDEX 01 00:19:16
  TRACK 15 AUDIO
    TITLE "0:"
    INDEX 01 00:22:38
  TRACK 16 AUDIO
    TITLE "7:cjc124_0371"
    INDEX 01 00:23:01
  TRACK 17 AUDIO
    TITLE "0:"
    INDEX 01 00:25:35
  TRACK 18 AUDIO
    TITLE "8:cjc124_0372"
    INDEX 01 00:25:52
  TRACK 19 AUDIO
    TITLE "0:"
    INDEX 01 00:27:63
  TRACK 20 AUDIO
    TITLE "7:cjc124_0373"
    INDEX 01 00:28:25
  TRACK 21 AUDIO
    TITLE "0:"
    INDEX 01 00:31:24
  TRACK 22 AUDIO
    TITLE "8:cjc124_0374"
    INDEX 01 00:31:39
  TRACK 23 AUDIO
    TITLE "0:"
    INDEX 01 00:34:06
  TRACK 24 AUDIO
    TITLE "7:cjc124_0375"
    INDEX 01 00:34:43
  TRACK 25 AUDIO
    TITLE "0:"
    INDEX 01 00:37:50
  TRACK 26 AUDIO
    TITLE "8:cjc124_0376"
    INDEX 01 00:37:67
  TRACK 27 AUDIO
    TITLE "0:"
    INDEX 01 00:40:56
  TRACK 28 AUDIO
    TITLE "7:cjc124_0377"
    INDEX 01 00:41:18
  TRACK 29 AUDIO
    TITLE "0:"
    INDEX 01 00:44:30
  TRACK 30 AUDIO
    TITLE "8:cjc124_0378"
    INDEX 01 00:44:46
  TRACK 31 AUDIO
    TITLE "0:"
    INDEX 01 00:47:44
  TRACK 32 AUDIO
    TITLE "7:cjc124_0379"
    INDEX 01 00:48:10
  TRACK 33 AUDIO
    TITLE "0:"
    INDEX 01 00:50:21
  TRACK 34 AUDIO
    TITLE "8:cjc124_0380"
    INDEX 01 00:50:42
  TRACK 35 AUDIO
    TITLE "0:"
    INDEX 01 00:52:59
  TRACK 36 AUDIO
    TITLE "7:cjc124_0381"
    INDEX 01 00:53:21
  TRACK 37 AUDIO
    TITLE "0:"
    INDEX 01 00:55:18
  TRACK 38 AUDIO
    TITLE "8:cjc124_0382"
    INDEX 01 00:55:42
  TRACK 39 AUDIO
    TITLE "0:"
    INDEX 01 00:57:39
  TRACK 40 AUDIO
    TITLE "7:cjc124_0383"
    INDEX 01 00:58:03
  TRACK 41 AUDIO
    TITLE "0:"
    INDEX 01 01:01:33
  TRACK 42 AUDIO
    TITLE "8:cjc124_0384"
    INDEX 01 01:01:46
  TRACK 43 AUDIO
    TITLE "0:"
    INDEX 01 01:05:30
  TRACK 44 AUDIO
    TITLE "7:cjc124_0385"
    INDEX 01 01:05:68
  TRACK 45 AUDIO
    TITLE "0:"
    INDEX 01 01:09:18
  TRACK 46 AUDIO
    TITLE "8:cjc124_0386"
    INDEX 01 01:09:34
  TRACK 47 AUDIO
    TITLE "0:"
    INDEX 01 01:12:34
  TRACK 48 AUDIO
    TITLE "7:cjc124_0387"
    INDEX 01 01:12:70
  TRACK 49 AUDIO
    TITLE "0:"
    INDEX 01 01:15:72
  TRACK 50 AUDIO
    TITLE "8:cjc124_0388"
    INDEX 01 01:16:12
  TRACK 51 AUDIO
    TITLE "0:"
    INDEX 01 01:19:15
  TRACK 52 AUDIO
    TITLE "7:cjc124_0389"
    INDEX 01 01:19:50
  TRACK 53 AUDIO
    TITLE "0:"
    INDEX 01 01:23:36
  TRACK 54 AUDIO
    TITLE "8:cjc124_0390"
    INDEX 01 01:23:52
  TRACK 55 AUDIO
    TITLE "0:"
    INDEX 01 01:26:29
  TRACK 56 AUDIO
    TITLE "7:cjc124_0391"
    INDEX 01 01:26:64
  TRACK 57 AUDIO
    TITLE "0:"
    INDEX 01 01:29:27
  TRACK 58 AUDIO
    TITLE "8:cjc124_0392"
    INDEX 01 01:29:50
  TRACK 59 AUDIO
    TITLE "0:"
    INDEX 01 01:31:63
  TRACK 60 AUDIO
    TITLE "7:cjc124_0393"
    INDEX 01 01:32:27
  TRACK 61 AUDIO
    TITLE "0:"
    INDEX 01 01:35:41
  TRACK 62 AUDIO
    TITLE "8:cjc124_0394"
    INDEX 01 01:35:57
  TRACK 63 AUDIO
    TITLE "0:"
    INDEX 01 01:38:14
  TRACK 64 AUDIO
    TITLE "7:cjc124_0395"
    INDEX 01 01:38:55
  TRACK 65 AUDIO
    TITLE "0:"
    INDEX 01 01:41:44
  TRACK 66 AUDIO
    TITLE "8:cjc124_0396"
    INDEX 01 01:41:59
  TRACK 67 AUDIO
    TITLE "0:"
    INDEX 01 01:44:30
